<svg viewBox="0 0 239 89" xmlns="http://www.w3.org/2000/svg"><path d="m13.413 16.336c-.164.299-.33.617-.496.943-.621 1.222-1.224 2.563-1.585 3.399-.774 1.828-1.256 2.982-1.658 4.186-.401 1.2-.711 2.448-1.141 4.436-.85 4.12-1.146 8.158-1.091 12.158.123 9.088 2.03 17.955 2.339 27.196.098 2.172-.033 4.207-.52 6.14-.328 1.304-.815 2.554-1.519 3.792-.292.514-.562 1.048-.924 1.561-.113.185-.596.835-1.207 1.494-.076.082-.138.166-.214.248-.067.073-.126.145-.194.218-.297.319-.558.61-.818.872-.212.213-.246.76-.349.586-.09-.151.148.241.08.369-.054.103-.252-.044-.332-.243.016-.159-.1-.302-.26-.318s-.302.101-.318.26c-.409.625-.11.965.054 1.312.263.557.947.599 2.069.53 1.075-.066 2.393-.802 3.436-1.372.756-.413 1.25-.882 1.425-1.035 1.222-1.207 2.185-2.481 2.931-3.84.53-.966.907-1.987 1.215-3.027.717-2.414.91-4.994.837-7.74-.355-9.216-2.218-18.052-2.475-27.113-.103-3.645.034-7.331.716-11.104.304-1.78.531-2.9.832-3.982.313-1.127.694-2.215 1.309-3.938.279-.799.755-2.08 1.244-3.257.173-.419.343-.825.506-1.187l.221.071c2.001.606 2.704-.746 2.88-1.165.214-.504.19-1.682-.944-2.562-.827-.642-2.396-1.064-3.751-.5-.849-.242-1.691-.503-2.588-.799-1.671-.51-3.253-1.111-4.832-1.769-1.617-.673-3.18-1.357-4.739-2.215-.129-.095-.311-.067-.406.062s-.068.312.062.407c1.322 1.271 2.655 2.423 4.126 3.47 1.472 1.047 3.036 1.922 4.67 2.776.482.238.947.465 1.409.68zm125.612 36.757c-.073.027-1.056.487-1.056.487l.997.564c.365.188.944.566 1.846.879 1.019.354 2.177.485 2.826.616 1.221.156 2.407.36 3.634.466 1.814.157 3.632.163 5.451.245 6.626.036 13.502-2.075 17.965-6.359 3.176-3.048 5.186-7.17 5.176-12.391-.065-9.353-2.168-18.107-6.792-24.441-2.633-3.606-6.05-6.476-10.326-8.225-3.626-1.483-7.864-2.175-12.758-1.859-2.183.205-6.924.602-10.824 1.929-2.912.992-5.311 2.44-6.022 4.365-.072.144-.014.318.13.39.143.072.318.014.39-.13.977-1.511 3.346-2.124 6.014-2.53 3.859-.587 8.332-.514 10.408-.431 3.318.043 6.236.613 8.82 1.538 4.344 1.556 7.633 4.306 10.07 7.857 3.89 5.668 5.589 13.338 5.532 21.537-.008 4.541-2.246 7.842-5.47 10.031-3.437 2.334-7.94 3.477-12.313 3.507-1.819.081-3.637.087-5.451.244-1.227.106-2.413.31-3.634.466-.627.126-1.744.221-2.746.504-.903.254-1.49.597-1.867.741zm47.699-14.157c-2.127.411-3.392 1.737-4.116 3.378-.332.753-.445 1.58-.478 2.433-.107 2.754 1.365 5.59 3.561 7.349 2.259 1.661 5.767 2.687 9.401 3.023 3.485.323 7.056-.048 9.622-.765 2.523-.733 3.804-2.692 4.084-5.283.389-3.602-1.657-8.714-3.091-10.66-2.707-3.582-5.613-5.155-8.875-5.561-1.158-.145-2.365-.194-3.608-.009-.733.109-1.455.248-2.197.509-.723.254-1.379.455-2.048.912-.599.408-.725.696-1.266 1.216-.16.017-.275.161-.257.321.018.159.162.275.321.257.582.359.743.578 1.355.835.663.278 1.239.373 1.912.497.729.134 1.399.232 2.092.293 1.488.131 2.85.24 4.136.704 1.475.532 2.817 1.506 4.096 3.247.579.774 1.284 2.315 1.733 3.933.281 1.014.476 2.061.39 2.964-.031.321.023.68-.288.776-2.069.661-4.966.956-7.816.878-2.794-.076-5.568-.416-7.408-1.521-1.262-.698-2.229-1.919-2.681-3.283-.212-.639-.379-1.27-.387-1.915-.019-1.546.462-3.006 2.028-3.987.149-.06.222-.229.163-.378s-.229-.222-.378-.163zm-154.149-1.189c-.549.213-1.104.443-1.661.69-1.632.721-3.191 1.609-4.513 2.569-1.162.845-2.081 1.808-2.738 2.779-.877 1.295-1.186 2.696-1.009 4.113.194 1.549 1.14 3.192 3.221 4.837 3.063 2.336 7.616 1.801 11.238-.509 1.445-.922 2.694-2.115 3.637-3.447.229.574.425 1.246.665 1.885.251.669.511 1.284.826 1.822.616 1.052 1.098 1.876 1.763 2.142.354.142 1.193.401 1.342.313.544-.32 1.186-.337 1.42-1.604.114-.114.114-.298 0-.412-.113-.113-.298-.113-.411 0-.452.083-.609-.053-.883-.113-.061-.013-.045-.135-.045-.135s.653-1.218.616-1.837c-.047-.791-.112-1.645-.238-2.481-.175-1.165-.557-2.223-.957-3.024-.438-.782-1.274-1.743-2.238-2.782l-.032-.267c-.15-.983-.486-1.909-.953-2.773-.609-1.127-1.454-2.142-2.361-3.023 0 0-1.948-1.419-2.305-1.67-.098-.069-.206-.144-.206-.144s-4.258 2.222-4.258 2.202c-.001.28.026.57.08.869zm63.919.953c-.042.031-.072.071-.038.064.041-.009.05-.032.038-.064.034-.026.076-.047.096-.03.148.121-.268.303-.476.416-.997.546-2.418.891-3.808 1.087-1.074.152-2.071.27-2.886.263-.196-.002-1.381-.354-1.525-.426s-.318-.013-.39.13c-.223.289-.047.664.528 1.049.593.397 1.711.814 3.086 1.101 2.076.433 4.576.4 6.298-.132 1.727-.534 2.635-1.77 2.818-3.214.147-1.161-.413-2.765-2.304-4.798-3.976-4.042-9.92-3.269-14.383-.018-4.422 3.222-7.011 8.855-5.334 13.737 1.524 4.333 5.814 6.405 11.081 6.695 2.687.148 5.634-.048 8.353-.636 1.187-.257 2.329-.544 3.364-.965 1.041-.424 1.907-.864 2.699-1.399.2-.135.338-.241.499-.404.521-.526.661-.804 1.044-1.295.154-.045.243-.207.198-.361s-.207-.243-.361-.198c-.687-.221-1.026-.483-1.895-.65-.638-.122-1.254-.118-1.994-.125-.624-.006-1.248.001-1.92.058-1.572.132-3.246.362-4.941.485-2.422.174-4.864.248-6.963-.191-1.884-.395-3.507-1.108-4.113-2.803-1.03-2.822.893-5.902 3.389-7.88 1.314-1.039 2.815-1.818 4.345-2.025 1.402-.189 2.825.022 4.017 1.053.445.374.806.697 1.059 1.018.127.16.38.357.419.458zm123.14 2.815c.829.364 1.622.652 2.483.9.853.245 1.694.399 2.574.568 2.184.305 3.721.041 4.768-.386 1.181-.482 1.767-1.352 2.101-2.225.585-1.526-.08-3.597-1.872-5.418-1.693-1.721-4.534-3.176-7.815-3.519-2.631-.276-5.54.256-8.401 1.888-2.717 1.595-3.651 4.702-3.165 8.17.553 3.94 3.003 8.236 4.934 9.908.813.7 1.986 1.303 3.437 1.712 1.925.544 4.416.85 6.938.823 1.157-.012 2.321-.051 3.423-.229.8-.128 1.543-.282 2.243-.526.858-.299 1.569-.531 2.172-.977.703-.521.851-.84 1.27-1.355.156-.039.25-.197.211-.353s-.197-.251-.352-.212c-.578-.243-.779-.533-1.563-.792-.65-.215-1.307-.324-2.126-.444-.708-.103-1.435-.181-2.217-.233-1.066-.07-2.175-.094-3.275-.165-1.655-.107-3.278-.257-4.637-.578-.838-.197-1.565-.392-2.003-.768-1.085-.926-2.302-3.152-2.915-5.375-.269-.975-.433-1.953-.332-2.825.061-.529.184-1.034.638-1.313 3.726-2.401 7.747-1.637 10.096-.106.379.247.733.482 1.01.757.239.237.469.446.586.692.056.117.291.158.209.254-.493.58-1.53.981-3.304 1.138-1.009.147-1.969.255-2.975.326-.684.048-1.325.1-2.018.094-.157-.034-.312.066-.346.223s.066.312.223.346zm-165.593 1.174-.211-.607-1.182-3.888c0-.16-.13-.291-.291-.291-.16 0-.291.131-.291.291-.157.716-.281 1.39-.366 2.121-.085.738-.093 1.445-.092 2.186l.262 4.727c.049 1.301.297 2.06.472 2.433.22.466.571.685.833.861.764.513 1.915.563 2.963-.861.527-.716 1.305-2.803 2.205-5.386.772-2.216 1.667-4.831 2.731-7.063.575-1.206 1.183-2.292 1.879-3.068.314-.35.572-.732.979-.58 1.686.618 3.024 2.883 4.204 5.211 1.35 2.663 2.345 5.576 2.545 7.405.132.631-.102 1.327-.348 2.009-.29.803-.51 1.501-.668 2.16-.226.945-.098 1.308-.125 1.663-.012.152-.04.179-.034.217.05.311-.064.343.004.353.125.017.13.273.256.127.025-.029.099.051.125-.037.033-.017.062-.04.085-.066.042 0 .087-.002.136-.007.289-.033.543.047 1.328-.202.536-.17.986-.501 1.598-.924.343-.238.618-.523.925-.84.695-.719 1.177-1.616 1.543-2.503.332-.804.385-1.651.359-2.458-.24-2.686-1.663-7.325-3.833-11.031-1.738-2.97-4.012-5.281-6.282-6.093-3.392-1.186-6.569.884-8.671 5.108-1.001 2.011-1.841 4.467-2.48 6.824-.205.757-.39 1.5-.558 2.209zm79.807-32.125c-.243.862-.586 1.787-.904 3.016-.237.919-.445 1.896-.655 2.999-.266 1.391-.509 2.885-.763 4.487-.227 1.436-.445 2.932-.666 4.471-.292 2.039-.583 4.138-.917 6.222-.509 3.168-1.099 6.297-1.829 9.118-.339 1.314-.722 2.552-1.092 3.71-.267.836-.55 1.614-.784 2.363-.171.548-.262 1.048-.378 1.555-.097.424-.11.736-.127 1.138-.035.835.21.925.207 1.686-.113.114-.113.298 0 .411.114.114.298.114.412 0 .744.032.787.104 1.565-.1.513-.134.8-.43 1.267-.765.382-.274.667-.598.994-.982.383-.449.678-.98.985-1.541.404-.74.732-1.566 1.052-2.433 1.03-2.791 1.791-6.115 2.382-9.601.514-3.032.917-6.195 1.116-9.267.139-2.139.186-4.222.161-6.188-.013-1.08-.051-2.106-.125-3.094-.084-1.116-.17-2.134-.334-3.094-.294-1.712-.695-3.002-.986-4.111 0-.161-.13-.291-.29-.291-.161 0-.291.13-.291.291zm-100.294 29.667c-1.897 1.311-3.873 2.749-5.251 4.275-.755.836-1.325 1.641-1.263 2.499.049.679.687 1.187 1.668 1.845.554.38 1.221.452 1.898.42 1.234-.058 2.514-.616 3.647-1.383 1.297-.879 2.484-2.06 2.91-3.339-1.256-1.281-2.51-2.635-3.344-3.893-.093-.141-.182-.282-.265-.424z" fill="#ffffff" fill-rule="evenodd"/></svg>
